<svg xmlns="http://www.w3.org/2000/svg" viewBox="0 0 24 24" fill="#009688">
  <!-- Terminal window frame with title bar dots (cutouts) and transparent body -->
  <path fill-rule="evenodd" d="M4 3h16a2 2 0 0 1 2 2v14a2 2 0 0 1-2 2H4a2 2 0 0 1-2-2V5a2 2 0 0 1 2-2zm1 2.75a1 1 0 1 0 2 0 1 1 0 0 0-2 0zm3 0a1 1 0 1 0 2 0 1 1 0 0 0-2 0zm3 0a1 1 0 1 0 2 0 1 1 0 0 0-2 0zM4 8.5h16V19a1 1 0 0 1-1 1H5a1 1 0 0 1-1-1V8.5z"/>
  <!-- Terminal prompt chevron -->
  <path d="M6.5 11.5l3.5 2.5-3.5 2.5z"/>
  <!-- Cursor line -->
  <rect x="12.5" y="13" width="5" height="2" rx="1"/>
</svg>
